<?xml version="1.0" encoding="utf-8"?>
<!-- Generator: Adobe Illustrator 17.0.0, SVG Export Plug-In . SVG Version: 6.00 Build 0)  -->
<!DOCTYPE svg PUBLIC "-//W3C//DTD SVG 1.1//EN" "http://www.w3.org/Graphics/SVG/1.1/DTD/svg11.dtd">
<svg version="1.1" id="btn-plus" xmlns="http://www.w3.org/2000/svg" xmlns:xlink="http://www.w3.org/1999/xlink" x="0px" y="0px"
   width="46px" height="26px" viewBox="0 0 46 26" enable-background="new 0 0 46 26" xml:space="preserve">
  <g id="im">
    <g>
      <path fill="#000000" d="M8.144,24.797c-1.256,0-2.266-0.324-3.029-0.972c-0.425-0.358-0.742-0.828-0.955-1.408
        c-0.213-0.581-0.336-1.08-0.369-1.499c-0.034-0.418-0.05-1.002-0.05-1.753v-1.792c0-1.314-0.238-2.236-0.713-2.765
        c-0.475-0.529-1.443-0.897-2.901-1.102v-0.665c1.458-0.205,2.426-0.571,2.901-1.101c0.475-0.528,0.713-1.45,0.713-2.765V7.184
        c0-0.751,0.016-1.335,0.05-1.754c0.034-0.418,0.157-0.916,0.369-1.497c0.213-0.58,0.53-1.049,0.955-1.408
        c0.763-0.649,1.773-0.973,3.029-0.973v0.667C6.582,2.286,5.539,2.874,5.013,3.984C4.759,4.513,4.631,5.452,4.631,6.8v1.049
        c0,0.683-0.009,1.204-0.025,1.562c-0.017,0.358-0.081,0.802-0.191,1.331c-0.111,0.529-0.272,0.931-0.484,1.204
        c-0.213,0.273-0.526,0.529-0.942,0.768c-0.416,0.239-0.93,0.392-1.54,0.46c0.61,0.068,1.124,0.221,1.54,0.46
        c0.415,0.239,0.729,0.495,0.942,0.768c0.211,0.273,0.373,0.674,0.484,1.203c0.11,0.529,0.173,0.973,0.191,1.332
        c0.016,0.358,0.025,0.879,0.025,1.561v1.05c0,1.348,0.128,2.287,0.381,2.816c0.526,1.109,1.569,1.698,3.131,1.766V24.797z"/>
      <path fill="#000000" d="M46.043,13.507c-1.459,0.205-2.427,0.572-2.901,1.102c-0.475,0.528-0.713,1.45-0.713,2.765v1.792
        c0,0.751-0.017,1.335-0.051,1.753c-0.034,0.419-0.157,0.918-0.369,1.499c-0.211,0.58-0.53,1.049-0.954,1.408
        c-0.764,0.648-1.773,0.972-3.029,0.972v-0.665c1.561-0.068,2.604-0.657,3.13-1.766c0.255-0.529,0.381-1.468,0.381-2.816v-1.05
        c0-0.682,0.009-1.203,0.026-1.561c0.016-0.358,0.08-0.802,0.191-1.332c0.11-0.528,0.271-0.93,0.484-1.203
        c0.211-0.273,0.525-0.529,0.942-0.768c0.415-0.239,0.929-0.392,1.54-0.46c-0.611-0.068-1.125-0.221-1.54-0.46
        c-0.416-0.239-0.73-0.495-0.942-0.768c-0.213-0.273-0.374-0.674-0.484-1.204c-0.111-0.528-0.174-0.972-0.191-1.331
        c-0.017-0.358-0.026-0.879-0.026-1.562V6.8c0-1.348-0.126-2.287-0.381-2.816c-0.526-1.109-1.569-1.698-3.13-1.766V1.551
        c1.256,0,2.265,0.324,3.029,0.973c0.424,0.358,0.742,0.828,0.954,1.408c0.213,0.581,0.336,1.08,0.369,1.497
        c0.034,0.419,0.051,1.003,0.051,1.754v1.792c0,1.314,0.238,2.236,0.713,2.765c0.474,0.529,1.442,0.896,2.901,1.101V13.507z"/>
      <rect id="pl-h" x="17" y="13" fill="#000000" width="13" height="1"/>
    </g>
  </g>
</svg>
