<?xml version="1.0" encoding="utf-8"?>
<!-- Generator: Adobe Illustrator 17.0.0, SVG Export Plug-In . SVG Version: 6.00 Build 0)  -->
<!DOCTYPE svg PUBLIC "-//W3C//DTD SVG 1.1//EN" "http://www.w3.org/Graphics/SVG/1.1/DTD/svg11.dtd">
<svg version="1.1" id="Слой_1" xmlns="http://www.w3.org/2000/svg" xmlns:xlink="http://www.w3.org/1999/xlink" x="0px" y="0px"
	 width="188px" height="19px" viewBox="0 0 188 19" enable-background="new 0 0 188 19" xml:space="preserve">
<g>
	<linearGradient id="SVGID_1_" gradientUnits="userSpaceOnUse" x1="6.0834" y1="10" x2="23.8871" y2="10">
		<stop  offset="0" style="stop-color:#E92629"/>
		<stop  offset="1" style="stop-color:#FFC118"/>
	</linearGradient>
	<polygon fill="url(#SVGID_1_)" points="23.887,5.946 12.441,5.946 6.083,14.054 17.532,14.054 	"/>
	<linearGradient id="SVGID_2_" gradientUnits="userSpaceOnUse" x1="28.4643" y1="10" x2="46.269" y2="10">
		<stop  offset="0" style="stop-color:#961E20"/>
		<stop  offset="1" style="stop-color:#E92629"/>
	</linearGradient>
	<polygon fill="url(#SVGID_2_)" points="46.269,5.946 34.82,5.946 28.464,14.054 39.915,14.054 	"/>
	<linearGradient id="SVGID_3_" gradientUnits="userSpaceOnUse" x1="51.3129" y1="10" x2="69.1196" y2="10">
		<stop  offset="0" style="stop-color:#E92629"/>
		<stop  offset="1" style="stop-color:#FFC118"/>
	</linearGradient>
	<polygon fill="url(#SVGID_3_)" points="69.12,5.946 57.67,5.946 51.313,14.054 62.761,14.054 	"/>
	<linearGradient id="SVGID_4_" gradientUnits="userSpaceOnUse" x1="73.6938" y1="10" x2="91.4975" y2="10">
		<stop  offset="0" style="stop-color:#961E20"/>
		<stop  offset="1" style="stop-color:#E92629"/>
	</linearGradient>
	<polygon fill="url(#SVGID_4_)" points="91.498,5.946 80.049,5.946 73.694,14.054 85.142,14.054 	"/>
	<linearGradient id="SVGID_5_" gradientUnits="userSpaceOnUse" x1="96.5883" y1="10" x2="114.393" y2="10">
		<stop  offset="0" style="stop-color:#E92629"/>
		<stop  offset="1" style="stop-color:#FFC118"/>
	</linearGradient>
	<polygon fill="url(#SVGID_5_)" points="114.393,5.946 102.944,5.946 96.588,14.054 108.038,14.054 	"/>
	<linearGradient id="SVGID_6_" gradientUnits="userSpaceOnUse" x1="118.9672" y1="10" x2="136.7738" y2="10">
		<stop  offset="0" style="stop-color:#961E20"/>
		<stop  offset="1" style="stop-color:#E92629"/>
	</linearGradient>
	<polygon fill="url(#SVGID_6_)" points="136.774,5.946 125.325,5.946 118.967,14.054 130.415,14.054 	"/>
	<linearGradient id="SVGID_7_" gradientUnits="userSpaceOnUse" x1="141.8178" y1="10" x2="159.6205" y2="10">
		<stop  offset="0" style="stop-color:#E92629"/>
		<stop  offset="1" style="stop-color:#FFC118"/>
	</linearGradient>
	<polygon fill="url(#SVGID_7_)" points="159.621,5.946 148.172,5.946 141.818,14.054 153.266,14.054 	"/>
	<linearGradient id="SVGID_8_" gradientUnits="userSpaceOnUse" x1="164.1987" y1="10" x2="182.0024" y2="10">
		<stop  offset="0" style="stop-color:#961E20"/>
		<stop  offset="1" style="stop-color:#E92629"/>
	</linearGradient>
	<polygon fill="url(#SVGID_8_)" points="182.002,5.946 170.553,5.946 164.199,14.054 175.647,14.054 	"/>
</g>
</svg>
