<?xml version="1.0" encoding="utf-8"?>
<!-- Generator: Adobe Illustrator 17.0.0, SVG Export Plug-In . SVG Version: 6.00 Build 0)  -->
<!DOCTYPE svg PUBLIC "-//W3C//DTD SVG 1.1//EN" "http://www.w3.org/Graphics/SVG/1.1/DTD/svg11.dtd">
<svg version="1.1" id="Слой_1" xmlns="http://www.w3.org/2000/svg" xmlns:xlink="http://www.w3.org/1999/xlink" x="0px" y="0px"
	 width="200px" height="150px" viewBox="0 0 200 150" enable-background="new 0 0 200 150" xml:space="preserve">
<g>
	<g>
		<path fill="#EB2429" d="M25.169,144.835h-4.231v-2.208c0-2.788,0.064-5.577,0.167-8.361l-2.768,10.569h-3.365l-2.783-10.569
			c0.142,3.487,0.142,4.376,0.165,7.74l0.019,2.829H8.143v-14.698H14.6l0.95,3.819c0.457,1.858,0.852,3.695,1.134,5.57
			c0.335-1.917,0.788-3.775,1.241-5.673l0.911-3.716h6.334V144.835z"/>
		<path fill="#EB2429" d="M39.784,133.707h-7.742v1.837h7.021v3.408h-7.021v2.146h7.948v3.737H27.607v-14.698h12.177V133.707z"/>
		<path fill="#EB2429" d="M51.198,137.033l5.262,7.802h-5.449l-1.425-2.397c-0.411-0.679-0.765-1.38-1.076-2.105
			c-0.368,0.744-0.739,1.465-1.173,2.168l-1.405,2.334H40.71l5.347-7.802l-4.85-6.896h5.287l1.114,1.941
			c0.415,0.703,0.764,1.422,1.093,2.167c0.311-0.659,0.62-1.301,0.971-1.942l1.196-2.166h5.014L51.198,137.033z"/>
		<g>
			<g>
				<path fill="#EB2429" d="M71.341,144.835h-0.476l-1.939-4.851h-7.473l-1.981,4.851h-0.473l6.047-14.698h0.393L71.341,144.835z
					 M65.232,130.594l-3.634,8.997h7.183L65.232,130.594z"/>
				<path fill="#EB2429" d="M77.387,130.137c4.42,0,6.688,2.764,6.688,7.121c0,4.293-1.941,7.578-6.665,7.578h-4.974v-14.698H77.387
					z M73.322,144.052h3.776c4.498,0,6.09-2.708,6.09-6.731c0-3.799-1.776-6.401-5.845-6.401h-4.021V144.052z"/>
				<path fill="#EB2429" d="M91.84,144.835h-1.636l-5.511-14.698h1.567l3.841,10.571c0.349,0.966,0.664,1.938,0.934,2.93
					c0.326-0.969,0.596-1.964,0.946-2.91l3.822-10.591h1.483L91.84,144.835z"/>
				<path fill="#EB2429" d="M108.926,131.83h-8.234v4.603h7.7v1.629h-7.7v5.079h8.336v1.694H98.753v-14.698h10.173V131.83z"/>
				<path fill="#EB2429" d="M118.214,130.137c2.645,0,4.955,1.053,4.955,4.086c0,1.774-0.89,3.073-2.435,3.616
					c1.88,0.412,2.063,1.835,2.188,3.342c0.143,1.754,0.186,2.99,0.785,3.654h-2.769c-0.371-0.561-0.392-1.57-0.474-2.933
					c-0.143-2.312-0.721-3.139-3.22-3.139h-3.424v6.071h-2.558v-14.698H118.214z M113.821,136.845h3.402
					c1.694,0,3.385-0.249,3.385-2.349c0-1.945-1.502-2.254-3.05-2.254h-3.737V136.845z"/>
				<path fill="#EB2429" d="M136.609,132.885h-4.418v11.95h-3.243v-11.95h-4.415v-2.748h12.076V132.885z"/>
				<path fill="#EB2429" d="M142.056,144.835h-3.863v-14.698h3.863V144.835z"/>
				<path fill="#EB2429" d="M152.377,134.555c-0.08-1.178-0.907-1.798-2.395-1.798c-1.197,0-1.938,0.476-1.938,1.258
					c0,0.623,0.264,0.892,1.113,1.119c1.733,0.454,3.672,0.928,5.186,1.634c1.483,0.701,2.289,1.936,2.289,3.566
					c0,2.955-2.46,4.833-6.297,4.833c-4.088,0-6.502-1.94-6.564-5.268h3.858c0,1.736,1.154,2.335,2.952,2.335
					c1.426,0,2.186-0.537,2.186-1.486c0-0.784-0.471-1.175-1.936-1.569c-1.038-0.288-2.691-0.807-3.637-1.157
					c-1.959-0.7-2.864-1.855-2.864-3.652c0-2.788,2.286-4.542,5.92-4.542c3.674,0,5.72,1.671,5.782,4.729H152.377z"/>
				<path fill="#EB2429" d="M162.842,144.835h-4.5v-14.698h4.5V144.835z"/>
				<path fill="#EB2429" d="M178.488,144.835h-4.314l-3.654-6.255c-0.413-0.723-0.765-1.445-1.114-2.207
					c0.128,1.131,0.148,2.248,0.148,3.361l0.019,5.102h-4.357v-14.698h4.458l3.178,5.514c0.519,0.882,1.035,1.817,1.447,2.764
					c-0.082-1.119-0.124-2.25-0.124-3.386l-0.019-4.893h4.333V144.835z"/>
				<path fill="#EB2429" d="M194.712,144.835h-2.872l-0.143-1.508c-1.114,1.321-2.456,1.838-4.253,1.838
					c-4.145,0-6.994-3.119-6.994-7.681c0-4.52,3.1-7.698,7.491-7.698c3.283,0,6.153,2.164,6.542,5.487h-4.332
					c-0.287-1.111-1.074-1.709-2.29-1.709c-2.399,0-2.875,2.229-2.875,4.147c0,2.56,1.078,3.903,3.099,3.903
					c1.322,0,2.229-0.623,2.517-1.717h-1.935v-3.156h6.045V144.835z"/>
			</g>
		</g>
	</g>
	<g>
		<linearGradient id="SVGID_1_" gradientUnits="userSpaceOnUse" x1="131.4353" y1="122.2535" x2="195.072" y2="122.2535">
			<stop  offset="0" style="stop-color:#E92629"/>
			<stop  offset="1" style="stop-color:#FFC118"/>
		</linearGradient>
		<rect x="131.435" y="121.096" fill-rule="evenodd" clip-rule="evenodd" fill="url(#SVGID_1_)" width="63.637" height="2.315"/>
		<rect x="67.804" y="121.096" fill-rule="evenodd" clip-rule="evenodd" fill="#EB2429" width="63.631" height="2.315"/>
		<rect x="8.411" y="121.096" fill-rule="evenodd" clip-rule="evenodd" fill="#96263E" width="63.633" height="2.315"/>
	</g>
	<g>
		<defs>
			<rect id="SVGID_2_" x="55.767" y="7.656" width="91.672" height="91.672"/>
		</defs>
		<clipPath id="SVGID_3_">
			<use xlink:href="#SVGID_2_"  overflow="visible"/>
		</clipPath>
		<g clip-path="url(#SVGID_3_)">
			<polyline fill="#96263E" points="113.247,87.729 124.835,99.329 147.439,99.329 147.439,7.656 113.517,7.656 102.093,19.077 
				90.663,7.656 55.767,7.656 55.767,99.329 78.967,99.329 90.374,87.921 101.778,99.329 			"/>
			
				<linearGradient id="SVGID_4_" gradientUnits="userSpaceOnUse" x1="184.2254" y1="-204.5375" x2="275.8973" y2="-204.5375" gradientTransform="matrix(1 0 0 1 -128.4581 258.03)">
				<stop  offset="0" style="stop-color:#E92629"/>
				<stop  offset="1" style="stop-color:#FFC118"/>
			</linearGradient>
			<polygon fill="url(#SVGID_4_)" points="113.517,7.656 55.922,64.522 55.767,99.329 78.967,99.329 147.389,30.725 147.439,7.656 
							"/>
			
				<linearGradient id="SVGID_5_" gradientUnits="userSpaceOnUse" x1="218.8319" y1="-193.0031" x2="276.2498" y2="-193.0031" gradientTransform="matrix(1 0 0 1 -128.4581 258.03)">
				<stop  offset="0" style="stop-color:#E02228"/>
				<stop  offset="1" style="stop-color:#E97A26"/>
			</linearGradient>
			<polygon fill="url(#SVGID_5_)" points="90.374,87.921 101.778,99.329 147.792,52.782 147.389,30.725 			"/>
			
				<linearGradient id="SVGID_6_" gradientUnits="userSpaceOnUse" x1="241.7049" y1="-181.7968" x2="275.8973" y2="-181.7968" gradientTransform="matrix(1 0 0 1 -128.4581 258.03)">
				<stop  offset="0" style="stop-color:#961E20"/>
				<stop  offset="1" style="stop-color:#E92629"/>
			</linearGradient>
			<polygon fill="url(#SVGID_6_)" points="113.247,87.729 124.835,99.329 147.439,78.883 147.439,53.138 			"/>
		</g>
	</g>
</g>
</svg>
