<?xml version="1.0" encoding="utf-8"?>
<!-- Generator: Adobe Illustrator 17.0.0, SVG Export Plug-In . SVG Version: 6.00 Build 0)  -->
<!DOCTYPE svg PUBLIC "-//W3C//DTD SVG 1.1//EN" "http://www.w3.org/Graphics/SVG/1.1/DTD/svg11.dtd">
<svg version="1.1" id="Слой_1" xmlns="http://www.w3.org/2000/svg" xmlns:xlink="http://www.w3.org/1999/xlink" x="0px" y="0px"
	 width="80px" height="80px" viewBox="0 0 80 80" enable-background="new 0 0 80 80" xml:space="preserve">
<g>
	<g>
		<path fill="#F69321" d="M57.946,14.667v-3.811H42.118H22.061v3.811h-9.946l0.459,7.529c0.456,7.381,4.574,14.045,10.975,17.736
			l5.933,3.422c1.356,1.71,2.85,3.241,4.507,4.555l3.034,2.401l-0.015,4.818c-5.825,0.982-10.647,4.808-13.096,9.981h-3.704v4.035
			h39.604v-4.035h-3.725c-2.445-5.173-7.27-8.999-13.091-9.981l-0.016-4.818l3.042-2.401c1.648-1.314,3.143-2.845,4.489-4.555
			l5.939-3.422c6.401-3.691,10.527-10.355,10.973-17.736l0.462-7.529H57.946z M18.167,24.055l-0.244-3.922h4.138v0.639
			c0,4.676,0.815,9.209,2.322,13.332C20.752,32.009,18.421,28.237,18.167,24.055 M61.83,24.055
			c-0.24,4.182-2.581,7.954-6.211,10.048c1.504-4.122,2.326-8.655,2.326-13.332v-0.639h4.13L61.83,24.055z"/>
		<linearGradient id="SVGID_1_" gradientUnits="userSpaceOnUse" x1="20.207" y1="40" x2="67.8843" y2="40">
			<stop  offset="0" style="stop-color:#E92629"/>
			<stop  offset="1" style="stop-color:#FFC118"/>
		</linearGradient>
		<path fill="url(#SVGID_1_)" d="M57.946,14.667v-3.811h-0.247L29.085,43.118l0.397,0.237c1.356,1.71,2.85,3.241,4.507,4.555
			l3.034,2.401l-0.015,4.818c-5.825,0.982-10.647,4.808-13.096,9.981h-3.704v4.035h39.604v-4.035h-3.725
			c-2.445-5.173-7.27-8.999-13.091-9.981l-0.016-4.818l3.042-2.401c1.648-1.314,3.143-2.845,4.489-4.555l5.939-3.422
			c6.401-3.691,10.527-10.355,10.973-17.736l0.462-7.529H57.946z M61.83,24.055c-0.24,4.182-2.581,7.954-6.211,10.048
			c1.504-4.122,2.326-8.655,2.326-13.332v-0.639h4.13L61.83,24.055z"/>
	</g>
	<g>
		<g>
			<path fill="#FFFFFF" d="M48.851,30.42v4.051h-3.227v5.525h-4.53v-5.525H30.797v-4.496l10.434-14.073h4.393V30.42H48.851z
				 M41.094,30.42v-8.924l-6.385,8.924H41.094z"/>
		</g>
	</g>
</g>
</svg>
