<?xml version="1.0" encoding="utf-8"?>
<!-- Generator: Adobe Illustrator 17.0.0, SVG Export Plug-In . SVG Version: 6.00 Build 0)  -->
<!DOCTYPE svg PUBLIC "-//W3C//DTD SVG 1.1//EN" "http://www.w3.org/Graphics/SVG/1.1/DTD/svg11.dtd">
<svg version="1.1" id="Слой_1" xmlns="http://www.w3.org/2000/svg" xmlns:xlink="http://www.w3.org/1999/xlink" x="0px" y="0px"
	 width="80px" height="80px" viewBox="0 0 80 80" enable-background="new 0 0 80 80" xml:space="preserve">
<g>
	<g>
		<path fill="#F69321" d="M63.074,8.72V4.056H43.708H19.169V8.72H7l0.562,9.21c0.557,9.032,5.595,17.183,13.428,21.702l7.256,4.186
			c1.658,2.094,3.488,3.964,5.516,5.573l3.712,2.939l-0.017,5.894c-7.129,1.202-13.032,5.885-16.024,12.213h-4.534v4.936h48.454
			v-4.936h-4.558c-2.99-6.328-8.894-11.011-16.014-12.213l-0.02-5.894l3.723-2.939c2.015-1.609,3.846-3.479,5.493-5.573l7.262-4.186
			c7.833-4.52,12.883-12.67,13.429-21.702l0.564-9.21H63.074z M14.405,20.204l-0.3-4.798h5.065v0.781
			c0,5.72,0.999,11.269,2.841,16.313C17.569,29.937,14.715,25.321,14.405,20.204 M67.824,20.204
			c-0.291,5.117-3.156,9.733-7.6,12.296c1.842-5.044,2.85-10.592,2.85-16.313v-0.781h5.05L67.824,20.204z"/>
		<linearGradient id="SVGID_1_" gradientUnits="userSpaceOnUse" x1="16.899" y1="39.7143" x2="75.2317" y2="39.7143">
			<stop  offset="0" style="stop-color:#E92629"/>
			<stop  offset="1" style="stop-color:#FFC118"/>
		</linearGradient>
		<path fill="url(#SVGID_1_)" d="M63.074,8.72V4.056H62.77L27.762,43.529l0.484,0.289c1.658,2.094,3.488,3.964,5.516,5.573
			l3.712,2.939l-0.017,5.894c-7.129,1.202-13.032,5.885-16.024,12.213h-4.534v4.936h48.454v-4.936h-4.558
			c-2.99-6.328-8.894-11.011-16.014-12.213l-0.02-5.894l3.723-2.939c2.015-1.609,3.846-3.479,5.493-5.573l7.262-4.186
			c7.833-4.52,12.883-12.67,13.429-21.702l0.564-9.21H63.074z M67.824,20.204c-0.291,5.117-3.156,9.733-7.6,12.296
			c1.842-5.044,2.85-10.592,2.85-16.313v-0.781h5.05L67.824,20.204z"/>
	</g>
	<g>
		<g>
			<path fill="#FFFFFF" d="M51.478,34.544v5.165H29.936c0.026-1.316,0.201-2.526,0.525-3.632c0.321-1.106,0.699-2.037,1.134-2.793
				c0.434-0.755,1.099-1.553,1.995-2.394c0.896-0.839,1.686-1.511,2.372-2.015c0.686-0.504,1.686-1.203,3.003-2.1
				c0.169-0.112,0.615-0.405,1.343-0.881s1.233-0.812,1.512-1.008c0.28-0.195,0.699-0.539,1.259-1.029
				c0.559-0.49,0.959-0.916,1.198-1.281c0.237-0.364,0.469-0.819,0.694-1.365c0.223-0.546,0.335-1.113,0.335-1.7
				c0-1.288-0.385-2.317-1.154-3.087c-0.772-0.769-1.786-1.154-3.045-1.154c-3.025,0-4.619,2.127-4.788,6.383h-5.711v-0.631
				c0-3.331,0.967-5.984,2.898-7.957c1.932-1.974,4.536-2.961,7.811-2.961c2.966,0,5.375,0.833,7.224,2.499
				c1.847,1.665,2.771,3.828,2.771,6.488c0,2.155-0.491,3.877-1.47,5.165c-0.981,1.288-2.519,2.644-4.62,4.072
				c-0.28,0.197-0.797,0.541-1.553,1.029c-0.756,0.491-1.352,0.89-1.785,1.198c-0.434,0.309-0.96,0.699-1.575,1.176
				c-0.615,0.476-1.148,0.944-1.595,1.406c-0.447,0.462-0.826,0.931-1.134,1.407H51.478z"/>
		</g>
	</g>
</g>
</svg>
