<?xml version="1.0" encoding="utf-8"?>
<!-- Generator: Adobe Illustrator 17.0.0, SVG Export Plug-In . SVG Version: 6.00 Build 0)  -->
<!DOCTYPE svg PUBLIC "-//W3C//DTD SVG 1.1//EN" "http://www.w3.org/Graphics/SVG/1.1/DTD/svg11.dtd">
<svg version="1.1" id="Слой_1" xmlns="http://www.w3.org/2000/svg" xmlns:xlink="http://www.w3.org/1999/xlink" x="0px" y="0px"
	 width="35px" height="35px" viewBox="0 0 35 35" enable-background="new 0 0 35 35" xml:space="preserve">
<g>
	<path fill="#96263E" d="M11.429,9.468v4.378h1.623V9.468l1.945-6.428h-1.635l-1.105,4.243l-1.152-4.243H9.399
		c0.34,0.998,0.697,2.008,1.042,3.008C10.96,7.556,11.279,8.693,11.429,9.468z"/>
	<path fill="#96263E" d="M21.595,13.959c0.529,0,1.085-0.317,1.672-0.99v0.878h1.459V5.789h-1.459v6.16
		c-0.328,0.459-0.638,0.682-0.928,0.682c-0.19,0-0.308-0.112-0.337-0.335c-0.02-0.05-0.02-0.232-0.02-0.572V5.789h-1.458v6.372
		c0,0.567,0.055,0.956,0.13,1.203C20.802,13.771,21.126,13.959,21.595,13.959z"/>
	<path fill="#96263E" d="M25.509,22.031c-0.481,0-0.725,0.367-0.725,1.105v0.737h1.443v-0.737
		C26.228,22.398,25.986,22.031,25.509,22.031z"/>
	<path fill="#96263E" d="M29.04,17.976c-0.293-1.273-1.331-2.21-2.584-2.348c-2.967-0.33-5.967-0.33-8.954-0.33
		c-2.981,0-5.987,0-8.956,0.33c-1.25,0.138-2.29,1.074-2.582,2.348c-0.411,1.815-0.421,3.79-0.421,5.655c0,1.864,0,3.84,0.419,5.647
		c0.285,1.276,1.33,2.212,2.583,2.355c2.97,0.325,5.97,0.33,8.954,0.325c2.981,0.005,5.986,0,8.954-0.325
		c1.251-0.143,2.295-1.078,2.585-2.355c0.416-1.808,0.421-3.783,0.421-5.647C29.457,21.766,29.457,19.791,29.04,17.976z
		 M12.361,19.609h-1.728v9.192H9.023v-9.192H7.329v-1.508h5.032V19.609z M16.728,28.801h-1.447v-0.865
		c-0.571,0.657-1.117,0.977-1.646,0.977c-0.469,0-0.794-0.189-0.932-0.593c-0.084-0.245-0.13-0.622-0.13-1.185v-6.311h1.445v5.875
		c0,0.336,0,0.513,0.013,0.563c0.034,0.221,0.145,0.33,0.337,0.33c0.291,0,0.596-0.218,0.912-0.67v-6.098h1.447V28.801z
		 M22.219,26.408c0,0.741-0.05,1.271-0.142,1.608c-0.195,0.592-0.584,0.897-1.158,0.897c-0.514,0-1.005-0.288-1.493-0.886v0.773
		h-1.442v-10.7h1.442v3.495c0.468-0.572,0.96-0.866,1.493-0.866c0.574,0,0.962,0.301,1.158,0.903
		c0.092,0.317,0.142,0.848,0.142,1.598V26.408z M27.671,25.082h-2.887v1.409c0,0.738,0.244,1.103,0.736,1.103
		c0.357,0,0.562-0.19,0.646-0.574c0.019-0.078,0.03-0.399,0.03-0.976h1.475v0.207c0,0.469-0.017,0.786-0.026,0.933
		c-0.05,0.317-0.161,0.608-0.336,0.865c-0.403,0.577-0.994,0.865-1.75,0.865c-0.758,0-1.335-0.273-1.75-0.82
		c-0.308-0.395-0.463-1.027-0.463-1.873v-2.787c0-0.86,0.138-1.482,0.443-1.885c0.421-0.542,0.995-0.818,1.731-0.818
		c0.721,0,1.304,0.276,1.704,0.818c0.308,0.402,0.448,1.024,0.448,1.885V25.082z"/>
	<path fill="#96263E" d="M20.144,22.031c-0.23,0-0.48,0.115-0.718,0.354v4.86c0.237,0.238,0.488,0.348,0.718,0.348
		c0.42,0,0.636-0.348,0.636-1.07v-3.404C20.78,22.398,20.564,22.031,20.144,22.031z"/>
	<path fill="#96263E" d="M18.871,6.521c-0.405-0.55-0.973-0.825-1.701-0.825c-0.729,0-1.3,0.275-1.702,0.825
		c-0.315,0.407-0.457,1.035-0.457,1.893v2.828c0,0.854,0.142,1.486,0.457,1.898c0.401,0.542,0.973,0.819,1.702,0.819
		c0.728,0,1.296-0.277,1.701-0.819c0.304-0.411,0.453-1.043,0.453-1.898V8.414C19.324,7.556,19.175,6.928,18.871,6.521z
		 M17.861,11.513c0,0.745-0.225,1.117-0.691,1.117c-0.476,0-0.703-0.372-0.703-1.117v-3.39c0-0.745,0.226-1.113,0.703-1.113
		c0.466,0,0.691,0.368,0.691,1.113V11.513z"/>
</g>
</svg>
